<mxfile host="65bd71144e">
    <diagram id="PTedLMZDfD0xnTYrAyRV" name="Page-1">
        <mxGraphModel dx="1550" dy="399" grid="1" gridSize="10" guides="1" tooltips="1" connect="1" arrows="1" fold="1" page="1" pageScale="1" pageWidth="850" pageHeight="1100" math="0" shadow="0">
            <root>
                <mxCell id="0"/>
                <mxCell id="1" parent="0"/>
                <mxCell id="57" value="" style="shape=flexArrow;endArrow=classic;html=1;fontSize=10;fontColor=#000000;exitX=0.1;exitY=0.444;exitDx=0;exitDy=0;exitPerimeter=0;entryX=0.481;entryY=0;entryDx=0;entryDy=0;entryPerimeter=0;fillColor=#dae8fc;strokeColor=#6c8ebf;gradientColor=#7ea6e0;" edge="1" parent="1" source="39" target="56">
                    <mxGeometry width="50" height="50" relative="1" as="geometry">
                        <mxPoint x="-100" y="410" as="sourcePoint"/>
                        <mxPoint x="-50" y="360" as="targetPoint"/>
                        <Array as="points">
                            <mxPoint y="200"/>
                            <mxPoint x="-50" y="200"/>
                        </Array>
                    </mxGeometry>
                </mxCell>
                <mxCell id="55" value="" style="shape=flexArrow;endArrow=classic;html=1;fontSize=10;fontColor=#000000;exitX=0.509;exitY=1.011;exitDx=0;exitDy=0;exitPerimeter=0;fillColor=#fad9d5;strokeColor=none;" edge="1" parent="1">
                    <mxGeometry width="50" height="50" relative="1" as="geometry">
                        <mxPoint x="401.26" y="68.32999999999993" as="sourcePoint"/>
                        <mxPoint x="401" y="108" as="targetPoint"/>
                    </mxGeometry>
                </mxCell>
                <mxCell id="43" style="edgeStyle=none;html=1;exitX=1;exitY=0.25;exitDx=0;exitDy=0;entryX=0;entryY=0.25;entryDx=0;entryDy=0;" edge="1" parent="1" source="39" target="40">
                    <mxGeometry relative="1" as="geometry"/>
                </mxCell>
                <mxCell id="39" value="Frontend" style="shape=internalStorage;whiteSpace=wrap;html=1;backgroundOutline=1;dx=10;dy=10;fillColor=#1ba1e2;fontColor=#ffffff;strokeColor=#006EAF;" vertex="1" parent="1">
                    <mxGeometry x="80" y="160" width="100" height="90" as="geometry"/>
                </mxCell>
                <mxCell id="44" style="edgeStyle=none;html=1;exitX=0;exitY=0.75;exitDx=0;exitDy=0;entryX=1;entryY=0.75;entryDx=0;entryDy=0;" edge="1" parent="1" source="40" target="39">
                    <mxGeometry relative="1" as="geometry"/>
                </mxCell>
                <mxCell id="45" style="edgeStyle=none;html=1;exitX=1;exitY=0.25;exitDx=0;exitDy=0;entryX=0;entryY=0.25;entryDx=0;entryDy=0;" edge="1" parent="1" source="40" target="42">
                    <mxGeometry relative="1" as="geometry"/>
                </mxCell>
                <mxCell id="40" value="Server&lt;br&gt;&lt;font style=&quot;font-size: 10px;&quot;&gt;(business logics)&lt;/font&gt;" style="shape=internalStorage;whiteSpace=wrap;html=1;backgroundOutline=1;dx=10;dy=10;fillColor=#f8cecc;gradientColor=#ea6b66;strokeColor=#b85450;" vertex="1" parent="1">
                    <mxGeometry x="360" y="160" width="100" height="90" as="geometry"/>
                </mxCell>
                <mxCell id="46" style="edgeStyle=none;html=1;exitX=0;exitY=0.75;exitDx=0;exitDy=0;entryX=1;entryY=0.75;entryDx=0;entryDy=0;" edge="1" parent="1" source="42" target="40">
                    <mxGeometry relative="1" as="geometry"/>
                </mxCell>
                <mxCell id="42" value="Database" style="shape=internalStorage;whiteSpace=wrap;html=1;backgroundOutline=1;dx=10;dy=10;fillColor=#d80073;strokeColor=#A50040;fontColor=#ffffff;" vertex="1" parent="1">
                    <mxGeometry x="600" y="160" width="100" height="90" as="geometry"/>
                </mxCell>
                <mxCell id="47" value="http request" style="text;html=1;align=center;verticalAlign=middle;resizable=0;points=[];autosize=1;strokeColor=none;fillColor=none;" vertex="1" parent="1">
                    <mxGeometry x="220" y="150" width="90" height="30" as="geometry"/>
                </mxCell>
                <mxCell id="48" value="DB query&lt;br&gt;request" style="text;html=1;align=center;verticalAlign=middle;resizable=0;points=[];autosize=1;strokeColor=none;fillColor=none;" vertex="1" parent="1">
                    <mxGeometry x="490" y="140" width="70" height="40" as="geometry"/>
                </mxCell>
                <mxCell id="50" value="DB query&lt;br&gt;response" style="text;html=1;align=center;verticalAlign=middle;resizable=0;points=[];autosize=1;strokeColor=none;fillColor=none;" vertex="1" parent="1">
                    <mxGeometry x="500" y="230" width="70" height="40" as="geometry"/>
                </mxCell>
                <mxCell id="51" value="Server response&lt;br&gt;data" style="text;html=1;align=center;verticalAlign=middle;resizable=0;points=[];autosize=1;strokeColor=none;fillColor=none;" vertex="1" parent="1">
                    <mxGeometry x="210" y="230" width="110" height="40" as="geometry"/>
                </mxCell>
                <mxCell id="53" value="Basic project structure" style="text;html=1;align=center;verticalAlign=middle;resizable=0;points=[];autosize=1;fillColor=#fad9d5;strokeColor=none;rounded=1;fontColor=#000000;" vertex="1" parent="1">
                    <mxGeometry x="330" y="40" width="140" height="30" as="geometry"/>
                </mxCell>
                <mxCell id="66" style="edgeStyle=none;html=1;exitX=0;exitY=1;exitDx=0;exitDy=0;entryX=0.5;entryY=0;entryDx=0;entryDy=0;fontSize=10;fontColor=#1A1A1A;" edge="1" parent="1" source="56" target="64">
                    <mxGeometry relative="1" as="geometry"/>
                </mxCell>
                <mxCell id="71" style="edgeStyle=none;html=1;exitX=0.75;exitY=1;exitDx=0;exitDy=0;entryX=0.5;entryY=0;entryDx=0;entryDy=0;fontSize=10;fontColor=#1A1A1A;" edge="1" parent="1" source="56" target="69">
                    <mxGeometry relative="1" as="geometry"/>
                </mxCell>
                <mxCell id="56" value="Frontend UI" style="swimlane;whiteSpace=wrap;html=1;rounded=1;fontSize=10;fillColor=#e51400;strokeColor=#B20000;fontColor=#ffffff;" vertex="1" parent="1">
                    <mxGeometry x="-270" y="300" width="270" height="110" as="geometry"/>
                </mxCell>
                <mxCell id="58" value="&lt;font color=&quot;#000000&quot;&gt;Component 1&lt;/font&gt;" style="whiteSpace=wrap;html=1;rounded=1;fontSize=10;fillColor=#fad9d5;strokeColor=#ae4132;" vertex="1" parent="56">
                    <mxGeometry x="10" y="30" width="80" height="30" as="geometry"/>
                </mxCell>
                <mxCell id="59" value="&lt;font color=&quot;#000000&quot;&gt;Component 2&lt;/font&gt;" style="whiteSpace=wrap;html=1;rounded=1;fontSize=10;fillColor=#fad9d5;strokeColor=#ae4132;" vertex="1" parent="56">
                    <mxGeometry x="95" y="30" width="80" height="30" as="geometry"/>
                </mxCell>
                <mxCell id="60" value="&lt;font color=&quot;#000000&quot;&gt;Component 2&lt;/font&gt;" style="whiteSpace=wrap;html=1;rounded=1;fontSize=10;fillColor=#fad9d5;strokeColor=#ae4132;" vertex="1" parent="56">
                    <mxGeometry x="180" y="30" width="80" height="30" as="geometry"/>
                </mxCell>
                <mxCell id="61" value="&lt;font color=&quot;#000000&quot;&gt;Component 5&lt;/font&gt;" style="whiteSpace=wrap;html=1;rounded=1;fontSize=10;fillColor=#fad9d5;strokeColor=#ae4132;" vertex="1" parent="56">
                    <mxGeometry x="180" y="70" width="80" height="30" as="geometry"/>
                </mxCell>
                <mxCell id="62" value="&lt;font color=&quot;#000000&quot;&gt;Component 4&lt;/font&gt;" style="whiteSpace=wrap;html=1;rounded=1;fontSize=10;fillColor=#fad9d5;strokeColor=#ae4132;" vertex="1" parent="56">
                    <mxGeometry x="95" y="70" width="80" height="30" as="geometry"/>
                </mxCell>
                <mxCell id="63" value="&lt;font color=&quot;#000000&quot;&gt;Component 3&lt;/font&gt;" style="whiteSpace=wrap;html=1;rounded=1;fontSize=10;fillColor=#fad9d5;strokeColor=#ae4132;" vertex="1" parent="56">
                    <mxGeometry x="10" y="70" width="80" height="30" as="geometry"/>
                </mxCell>
                <mxCell id="77" value="" style="edgeStyle=none;html=1;fontSize=10;fontColor=#FFFFFF;" edge="1" parent="1" source="64" target="76">
                    <mxGeometry relative="1" as="geometry"/>
                </mxCell>
                <mxCell id="84" style="edgeStyle=none;html=1;exitX=1;exitY=0.5;exitDx=0;exitDy=0;entryX=0;entryY=0;entryDx=0;entryDy=0;fontSize=10;fontColor=#FFFFFF;" edge="1" parent="1" source="64" target="67">
                    <mxGeometry relative="1" as="geometry"/>
                </mxCell>
                <mxCell id="64" value="&lt;font color=&quot;#1a1a1a&quot;&gt;Nurse calling component&lt;/font&gt;" style="swimlane;whiteSpace=wrap;html=1;rounded=1;fontSize=10;fillColor=#b1ddf0;strokeColor=#10739e;" vertex="1" parent="1">
                    <mxGeometry x="-460" y="530" width="140" height="110" as="geometry"/>
                </mxCell>
                <mxCell id="73" value="&lt;font color=&quot;#ffffff&quot;&gt;Business logics for&lt;br&gt;&amp;nbsp;calling feature&lt;/font&gt;" style="text;html=1;align=center;verticalAlign=middle;resizable=0;points=[];autosize=1;strokeColor=none;fillColor=none;fontSize=10;fontColor=#1A1A1A;" vertex="1" parent="64">
                    <mxGeometry x="13" y="40" width="110" height="40" as="geometry"/>
                </mxCell>
                <mxCell id="83" style="edgeStyle=none;html=1;exitX=1;exitY=0;exitDx=0;exitDy=0;entryX=0;entryY=0.5;entryDx=0;entryDy=0;fontSize=10;fontColor=#FFFFFF;" edge="1" parent="1" source="67" target="69">
                    <mxGeometry relative="1" as="geometry"/>
                </mxCell>
                <mxCell id="85" style="edgeStyle=none;html=1;exitX=0;exitY=0.5;exitDx=0;exitDy=0;entryX=1;entryY=1;entryDx=0;entryDy=0;fontSize=10;fontColor=#FFFFFF;" edge="1" parent="1" source="67" target="64">
                    <mxGeometry relative="1" as="geometry"/>
                </mxCell>
                <mxCell id="67" value="&lt;font color=&quot;#1a1a1a&quot;&gt;Calling map component&lt;/font&gt;" style="swimlane;whiteSpace=wrap;html=1;rounded=1;fontSize=10;fillColor=#b1ddf0;strokeColor=#10739e;" vertex="1" parent="1">
                    <mxGeometry x="-240" y="620" width="140" height="110" as="geometry"/>
                </mxCell>
                <mxCell id="74" value="&lt;font color=&quot;#ffffff&quot;&gt;Business logics for&lt;br&gt;&amp;nbsp;calling map&lt;/font&gt;" style="text;html=1;align=center;verticalAlign=middle;resizable=0;points=[];autosize=1;strokeColor=none;fillColor=none;fontSize=10;fontColor=#1A1A1A;" vertex="1" parent="67">
                    <mxGeometry x="15" y="40" width="110" height="40" as="geometry"/>
                </mxCell>
                <mxCell id="68" style="edgeStyle=none;html=1;entryX=0.5;entryY=0;entryDx=0;entryDy=0;fontSize=10;fontColor=#1A1A1A;" edge="1" target="67" parent="1">
                    <mxGeometry relative="1" as="geometry">
                        <mxPoint x="-180" y="410" as="sourcePoint"/>
                    </mxGeometry>
                </mxCell>
                <mxCell id="82" style="edgeStyle=none;html=1;exitX=0;exitY=1;exitDx=0;exitDy=0;entryX=1;entryY=0.5;entryDx=0;entryDy=0;fontSize=10;fontColor=#FFFFFF;" edge="1" parent="1" source="69" target="67">
                    <mxGeometry relative="1" as="geometry"/>
                </mxCell>
                <mxCell id="69" value="&lt;font color=&quot;#1a1a1a&quot;&gt;NCS event component&lt;/font&gt;" style="swimlane;whiteSpace=wrap;html=1;rounded=1;fontSize=10;fillColor=#b1ddf0;strokeColor=#10739e;" vertex="1" parent="1">
                    <mxGeometry x="-40" y="530" width="140" height="110" as="geometry"/>
                </mxCell>
                <mxCell id="75" value="&lt;font color=&quot;#ffffff&quot;&gt;Business logics for&lt;br&gt;&amp;nbsp;NCS event messages&lt;/font&gt;" style="text;html=1;align=center;verticalAlign=middle;resizable=0;points=[];autosize=1;strokeColor=none;fillColor=none;fontSize=10;fontColor=#1A1A1A;" vertex="1" parent="69">
                    <mxGeometry x="10" y="40" width="120" height="40" as="geometry"/>
                </mxCell>
                <mxCell id="76" value="" style="shape=singleArrow;whiteSpace=wrap;html=1;arrowWidth=0.4;arrowSize=0.4;fontSize=10;fillColor=#b1ddf0;strokeColor=#10739e;fontStyle=1;startSize=23;rounded=1;" vertex="1" parent="1">
                    <mxGeometry x="-430" y="745" width="80" height="60" as="geometry"/>
                </mxCell>
            </root>
        </mxGraphModel>
    </diagram>
</mxfile>